<svg xmlns="http://www.w3.org/2000/svg" xmlns:xlink="http://www.w3.org/1999/xlink" width="500" zoomAndPan="magnify" viewBox="0 0 375 374.999991" height="500" preserveAspectRatio="xMidYMid meet" version="1.0"><defs><g/><clipPath id="6cce1f2006"><path d="M 65.488281 177.304688 L 114.03125 177.304688 L 114.03125 223.246094 L 65.488281 223.246094 Z M 65.488281 177.304688 " clip-rule="nonzero"/></clipPath><clipPath id="1f8e7aea64"><path d="M 103.722656 214.601562 L 152.265625 214.601562 L 152.265625 260.542969 L 103.722656 260.542969 Z M 103.722656 214.601562 " clip-rule="nonzero"/></clipPath><clipPath id="c871363957"><path d="M 165.25 223.421875 L 213.792969 223.421875 L 213.792969 269.363281 L 165.25 269.363281 Z M 165.25 223.421875 " clip-rule="nonzero"/></clipPath><clipPath id="8ac9fcc641"><path d="M 226.75 214.601562 L 275.292969 214.601562 L 275.292969 260.542969 L 226.75 260.542969 Z M 226.75 214.601562 " clip-rule="nonzero"/></clipPath><clipPath id="010204100f"><path d="M 260.109375 177.304688 L 309.519531 177.304688 L 309.519531 224.113281 L 260.109375 224.113281 Z M 260.109375 177.304688 " clip-rule="nonzero"/></clipPath><clipPath id="c68da5a09a"><path d="M 260.109375 177.304688 L 285 177.304688 L 285 224.113281 L 260.109375 224.113281 Z M 260.109375 177.304688 " clip-rule="nonzero"/></clipPath></defs><path fill="#2c9248" d="M 211.546875 346.046875 C 219.042969 354.164062 239.636719 355.644531 249.296875 353.78125 C 260.058594 351.683594 271.816406 340.847656 273.023438 333.078125 L 238.945312 326.992188 C 226.296875 326.507812 216.53125 333.425781 213.4375 341.714844 C 225.507812 343.816406 228.773438 345.152344 241.628906 342.777344 C 235.578125 350.171875 221.757812 346.046875 211.546875 346.046875 Z M 211.546875 346.046875 " fill-opacity="1" fill-rule="evenodd"/><path fill="#2c9248" d="M 103.140625 333.492188 C 107.0625 340.820312 107.371094 341.851562 112.839844 346.804688 C 127.589844 360.011719 155.847656 353.789062 163.070312 347.628906 C 164.308594 346.5625 163.6875 347.109375 164.652344 345.945312 C 153.71875 346.25 141.855469 349.933594 134.566406 342.882812 C 148.183594 345.117188 150.207031 343.398438 162.757812 341.851562 C 160.832031 336.003906 157.355469 333.664062 153.230469 330.914062 C 148.621094 327.851562 143.226562 326.753906 137 326.921875 C 135.457031 326.957031 103.933594 333.1875 103.140625 333.492188 Z M 103.140625 333.492188 " fill-opacity="1" fill-rule="evenodd"/><path fill="#2c9248" d="M 268.652344 318.941406 C 281.445312 317.324219 284.847656 315.433594 294.511719 310.515625 C 290.179688 319.664062 278.179688 319.21875 268.3125 323.722656 C 277.285156 328.847656 296.261719 322.175781 303.757812 318.253906 C 312.078125 313.851562 320.089844 303.046875 320.566406 290.082031 C 315.546875 290.667969 309.839844 292.695312 304.652344 293.589844 C 293.480469 295.554688 271.40625 295.589844 268.652344 318.941406 Z M 268.652344 318.941406 " fill-opacity="1" fill-rule="evenodd"/><path fill="#2c9248" d="M 107.847656 323.585938 C 97.808594 320.082031 84.574219 318.53125 81.714844 310.480469 C 91.617188 315.160156 94.128906 317.359375 107.398438 318.875 C 105.882812 297.445312 84.566406 295.65625 72.777344 293.761719 C 67.101562 292.867188 61.363281 291.214844 55.449219 289.976562 C 56.894531 303.492188 63.289062 313.125 72.296875 318.179688 C 79.140625 322.039062 99.5625 329.296875 107.847656 323.585938 Z M 107.847656 323.585938 " fill-opacity="1" fill-rule="evenodd"/><path fill="#2c9248" d="M 312.902344 277.183594 C 320.667969 276.289062 329.507812 266 334.355469 260.671875 C 332.015625 272.570312 321.496094 274.015625 314.484375 282.515625 C 331.878906 280.628906 354.710938 261.949219 352.789062 242.476562 L 352.03125 233.015625 C 347.597656 234.871094 343.675781 238.453125 339.484375 241.101562 C 335.1875 243.816406 330.578125 245.570312 326.074219 248.632812 C 317.957031 254.136719 311.871094 262.875 312.902344 277.183594 Z M 312.902344 277.183594 " fill-opacity="1" fill-rule="evenodd"/><path fill="#2c9248" d="M 61.707031 282.550781 C 57.277344 275.878906 44.347656 273.089844 41.769531 260.640625 C 46.480469 265.351562 53.285156 274.707031 63.324219 277.457031 C 64.769531 252.207031 48.539062 248.496094 37.226562 241.304688 C 33.308594 238.792969 27.945312 234.429688 24.160156 233.085938 C 22.171875 248.113281 25.328125 258.332031 32.71875 266.757812 C 37.539062 272.296875 50.019531 281.171875 61.707031 282.550781 Z M 61.707031 282.550781 " fill-opacity="1" fill-rule="evenodd"/><path fill="#2c9248" d="M 338.726562 228.207031 L 342.953125 223.628906 C 348.796875 216.265625 349.382812 215.855469 352.71875 206.121094 C 356.085938 215.132812 343.710938 225.488281 341.992188 232.058594 C 357.804688 225.59375 374.828125 191.746094 359.941406 175.816406 C 359.769531 175.988281 359.492188 175.988281 359.421875 176.300781 C 359.355469 176.574219 359.007812 176.644531 358.90625 176.75 L 355.773438 180.980469 C 342.988281 200.171875 331.230469 200.410156 338.726562 228.207031 Z M 338.726562 228.207031 " fill-opacity="1" fill-rule="evenodd"/><path fill="#2c9248" d="M 34.171875 231.882812 C 31.832031 225.585938 20.621094 214.242188 23.308594 206.292969 C 25.375 209.730469 26.300781 214.105469 28.742188 217.917969 L 35.550781 226.691406 C 37.0625 228 35.277344 226.863281 37.402344 228.070312 C 46.070312 204.75 32.179688 197.933594 20.695312 181.390625 C 19.21875 179.324219 18.289062 177.160156 16.019531 175.921875 C -0.0078125 199.035156 23.4375 228.101562 34.171875 231.882812 Z M 34.171875 231.882812 " fill-opacity="1" fill-rule="evenodd"/><path fill="#2c9248" d="M 25.640625 178.535156 C 24.882812 174.371094 23.71875 170.003906 22.789062 165.703125 C 21.863281 161.503906 21.039062 157.242188 22.375 153.972656 C 22.894531 152.699219 23.03125 152.773438 23.542969 152.082031 C 24.230469 164.160156 25.914062 166.082031 28.59375 176.089844 C 36.125 172.03125 38.804688 159.027344 35.917969 147.921875 C 35.503906 146.269531 26.394531 121.089844 26.289062 120.917969 C 19.457031 125.496094 12.855469 136.261719 14.019531 149.675781 C 14.8125 158.449219 19.796875 175.511719 25.640625 178.535156 Z M 25.640625 178.535156 " fill-opacity="1" fill-rule="evenodd"/><path fill="#2c9248" d="M 347.488281 175.988281 C 351.207031 166.082031 351.785156 163.054688 352.679688 151.460938 C 356.253906 157.277344 353.777344 164.601562 351.921875 171.792969 C 350.136719 178.535156 351.40625 177.296875 352.128906 178.429688 C 356.558594 167.90625 368.21875 151.359375 359.179688 132.203125 C 357.007812 127.59375 353.230469 123.089844 349.929688 121.089844 L 340.234375 148.125 C 337.042969 159.511719 340.027344 171.792969 347.488281 175.988281 Z M 347.488281 175.988281 " fill-opacity="1" fill-rule="evenodd"/><path fill="#2c9248" d="M 337.96875 127.078125 C 338.140625 117.035156 337.902344 111.328125 334.875 102.621094 C 342.917969 109.429688 338.828125 122.816406 341.746094 128.179688 C 347.320312 120.332031 347.761719 80.878906 322.703125 76.105469 C 322.148438 99.734375 319.503906 112.324219 331.777344 124.085938 C 333.636719 125.90625 334.875 126.664062 337.96875 127.078125 Z M 337.96875 127.078125 " fill-opacity="1" fill-rule="evenodd"/><path fill="#2c9248" d="M 59.027344 82.019531 C 64.90625 73.109375 64.285156 65.160156 73.472656 60.453125 C 71.890625 63.722656 69.414062 65.339844 67.386719 69.949219 C 65.601562 73.941406 64.085938 78.273438 63.089844 82.746094 C 74.949219 82.160156 80.65625 75.835938 84.441406 66.960938 C 85.539062 64.277344 93.144531 41.675781 93.382812 39.71875 C 67.96875 38.882812 57.753906 66.15625 59.027344 82.019531 Z M 59.027344 82.019531 " fill-opacity="1" fill-rule="evenodd"/><path fill="#2c9248" d="M 313.113281 82.777344 C 309.914062 68.878906 306.546875 67.5 302.726562 60.488281 C 312.457031 64.71875 310.808594 73.933594 317.136719 81.917969 C 319.234375 69.363281 309.191406 38.335938 282.789062 39.78125 C 283.542969 44.394531 285.816406 48.378906 287.464844 52.886719 C 291.515625 64.097656 291.863281 81.296875 313.113281 82.777344 Z M 313.113281 82.777344 " fill-opacity="1" fill-rule="evenodd"/><path fill="#2c9248" d="M 34.71875 128.28125 C 36.367188 117.652344 34.785156 109.261719 41.214844 102.621094 C 38.707031 113.320312 38.324219 115.351562 38.15625 127.386719 C 45.996094 125.21875 51.5625 117.582031 53.074219 108.402344 C 53.832031 103.855469 53.765625 81.296875 53.382812 76.105469 C 27.777344 82.429688 28.875 120.402344 34.71875 128.28125 Z M 34.71875 128.28125 " fill-opacity="1" fill-rule="evenodd"/><path fill="#2c9248" d="M 95.503906 53.777344 C 101.246094 50.679688 105.339844 39.394531 115.757812 39.019531 C 110.1875 41.769531 101.660156 50.710938 99.1875 55.597656 C 116.515625 64.234375 127.894531 42.042969 131.613281 37.710938 L 139.898438 27.667969 C 121.363281 15.011719 97.910156 39.742188 95.503906 53.777344 Z M 95.503906 53.777344 " fill-opacity="1" fill-rule="evenodd"/><path fill="#2c9248" d="M 236.300781 27.667969 C 237.332031 29.660156 238.054688 30.347656 239.804688 32.210938 C 248.984375 41.84375 256.378906 62.890625 277.003906 55.875 C 274.460938 50.199219 266.140625 42.285156 260.15625 39.230469 C 268.714844 37.886719 275.9375 50.582031 280.613281 53.746094 C 277.695312 37.027344 251.945312 15.667969 236.300781 27.667969 Z M 236.300781 27.667969 " fill-opacity="1" fill-rule="evenodd"/><path fill="#2c9248" d="M 214.058594 335.796875 C 222.410156 331.085938 215.605469 326.957031 226.882812 314.539062 L 222.550781 328.054688 C 227.675781 326.890625 232.589844 325.304688 238.503906 324.855469 C 239.8125 318.285156 238.128906 312.679688 238.8125 306.175781 C 239.429688 300.398438 241.285156 295.207031 242.417969 289.667969 C 220.554688 292.390625 214.125 316.8125 214.058594 335.796875 Z M 214.058594 335.796875 " fill-opacity="1" fill-rule="evenodd"/><path fill="#2c9248" d="M 162.101562 335.933594 C 161.761719 312.507812 154.539062 294.007812 133.734375 289.460938 C 134.867188 295.242188 136.761719 300.296875 137.34375 306.144531 C 137.996094 312.40625 136.722656 318.21875 137.410156 324.789062 C 145.25 325.476562 147.3125 325.441406 153.46875 328.398438 L 149.617188 315.191406 C 156.707031 320.972656 156.085938 332.257812 162.101562 335.933594 Z M 162.101562 335.933594 " fill-opacity="1" fill-rule="evenodd"/><path fill="#2c9248" d="M 263.566406 289.808594 C 263.53125 297.207031 263.941406 308.246094 268.105469 313.476562 C 270.71875 306.941406 269.894531 308.972656 269.859375 301.613281 L 272.265625 290.949219 C 272.367188 290.777344 272.539062 290.5 272.714844 290.292969 L 272.921875 303.195312 C 276.703125 301.507812 278.660156 297.6875 286.429688 295.210938 C 285.296875 283.585938 280.789062 288.984375 279.207031 261.300781 C 271.058594 265.558594 263.597656 276.015625 263.566406 289.808594 Z M 263.566406 289.808594 " fill-opacity="1" fill-rule="evenodd"/><path fill="#2c9248" d="M 89.761719 295.070312 C 92.546875 296.101562 94.746094 296.925781 97.1875 298.75 C 100.183594 300.984375 99.800781 302.222656 103.101562 303.292969 L 103.515625 289.667969 C 108.917969 298.09375 103.449219 307.519531 108.742188 313.4375 C 115.070312 290.835938 113.625 271.8125 97.910156 261.566406 C 97.773438 261.738281 97.640625 261.839844 97.605469 262.1875 L 96.363281 269.753906 C 95.027344 284.71875 90.621094 286.335938 89.761719 295.070312 Z M 89.761719 295.070312 " fill-opacity="1" fill-rule="evenodd"/><path fill="#2c9248" d="M 310.597656 273.054688 C 312.453125 264.5625 306.675781 260.878906 307.671875 249.285156 C 308.464844 253.003906 310.523438 258.886719 312.625 261.636719 C 314.035156 259.777344 315.546875 256.851562 316.886719 254.894531 C 318.707031 252.214844 320.253906 251.558594 321.835938 248.84375 C 317.609375 241.964844 314.582031 240.621094 312.070312 236.632812 C 309.179688 232.054688 307.84375 225.414062 304.304688 221.667969 C 299.421875 228.960938 295.847656 238.867188 298.597656 250.117188 C 300.355469 257.371094 306.4375 269.71875 310.597656 273.054688 Z M 310.597656 273.054688 " fill-opacity="1" fill-rule="evenodd"/><path fill="#2c9248" d="M 54.113281 250.113281 C 62.019531 256.714844 59.300781 255.71875 63.324219 261.601562 C 64.320312 260.671875 63.773438 261.566406 64.90625 259.464844 C 65.078125 259.125 66.003906 256.75 66.214844 256.199219 C 67.074219 253.824219 67.695312 251.585938 68.589844 249.695312 C 69.34375 261.289062 63.910156 263.832031 65.527344 273.082031 C 70.578125 267.101562 75.429688 259.460938 77.765625 249.484375 C 79.832031 240.609375 77.011719 226.613281 71.542969 221.828125 C 69.339844 224.511719 66.316406 233.113281 63.980469 236.722656 C 60.78125 241.722656 56.449219 243.890625 54.113281 250.113281 Z M 54.113281 250.113281 " fill-opacity="1" fill-rule="evenodd"/><path fill="#2c9248" d="M 335.664062 224.691406 C 334.152344 216.472656 328.648438 215.75 326.28125 205.910156 C 329.546875 209.109375 329.921875 211 333.570312 214.167969 C 333.707031 213.996094 333.84375 213.441406 333.878906 213.578125 L 338.691406 199.164062 C 326.28125 194.695312 323.253906 188.636719 315.347656 181.863281 C 306.097656 192.054688 321.398438 220.53125 335.664062 224.691406 Z M 335.664062 224.691406 " fill-opacity="1" fill-rule="evenodd"/><path fill="#2c9248" d="M 37.574219 199.382812 L 41.699219 212.246094 C 41.769531 212.453125 41.871094 212.765625 41.9375 212.9375 C 41.972656 213.105469 42.109375 213.453125 42.179688 213.589844 C 42.210938 213.726562 42.316406 214.007812 42.417969 214.210938 C 45.164062 211.183594 47.640625 208.535156 50.183594 205.335938 C 49.1875 208.910156 47.878906 212.214844 45.886719 215.039062 C 42.382812 220.09375 41.796875 216.757812 40.386719 225.011719 C 46.128906 223.054688 54.414062 214.246094 57.609375 209.429688 C 62.628906 201.898438 63.972656 191.746094 61.429688 181.636719 C 56.824219 184.523438 53.976562 192.5 37.574219 199.382812 Z M 37.574219 199.382812 " fill-opacity="1" fill-rule="evenodd"/><path fill="#2c9248" d="M 342.851562 174.652344 C 340.613281 169.042969 340.480469 170.558594 335.527344 167.664062 C 332.363281 165.808594 330.339844 163.640625 328.621094 160.753906 C 332.507812 162.0625 333.636719 164.160156 338.351562 165.605469 C 337.320312 159.273438 337.492188 157.042969 337.832031 150.746094 C 332.984375 149.402344 327.828125 149.300781 323.355469 147.960938 C 318.78125 146.617188 314.761719 143.730469 310.496094 142.285156 C 310.773438 161.027344 325.007812 172.277344 342.851562 174.652344 Z M 342.851562 174.652344 " fill-opacity="1" fill-rule="evenodd"/><path fill="#2c9248" d="M 38.332031 150.363281 L 38.296875 165.496094 C 42.421875 164.085938 43.867188 162.363281 47.679688 160.441406 C 43.898438 169.179688 36.402344 166.492188 33.378906 174.542969 C 51.191406 172.6875 64.839844 160.613281 65.765625 142.484375 C 57.617188 143.792969 62.15625 147.539062 38.332031 150.363281 Z M 38.332031 150.363281 " fill-opacity="1" fill-rule="evenodd"/><path fill="#2c9248" d="M 50.054688 121.125 L 60.542969 119.609375 C 58.6875 121.398438 56.144531 122.808594 52.808594 123.566406 C 46.582031 124.980469 47.585938 124.359375 42.871094 126.457031 C 43.25 126.800781 43.042969 128.28125 48.921875 128.628906 C 63.570312 129.488281 77.289062 125.050781 82.480469 109.472656 C 55.761719 110.433594 66.351562 108.023438 55.148438 107.75 C 54.042969 109.914062 51.289062 118.066406 50.054688 121.125 Z M 50.054688 121.125 " fill-opacity="1" fill-rule="evenodd"/><path fill="#2c9248" d="M 266.3125 82.292969 C 282.265625 99.695312 304.652344 89.136719 308.914062 84.011719 C 301.179688 81.636719 299.011719 85.902344 289.382812 83.5625 L 299.972656 81.121094 C 297.328125 76.371094 293.816406 76.304688 292.132812 69.9375 C 283.089844 72.898438 289.070312 74.03125 269.957031 80.53125 C 268.890625 80.875 268.890625 80.839844 267.964844 81.289062 C 266.175781 82.15625 267 81.738281 266.3125 82.292969 Z M 266.3125 82.292969 " fill-opacity="1" fill-rule="evenodd"/><path fill="#2c9248" d="M 76.289062 80.46875 C 78.695312 82.359375 82.921875 82.671875 86.324219 83.152344 C 80.6875 86.386719 74.707031 82.429688 67.246094 83.636719 C 72.09375 90.136719 96.710938 98.769531 109.84375 82.292969 C 107.097656 80.265625 100.183594 79.023438 96.609375 77.238281 C 92.277344 75.066406 90.042969 72.386719 85.195312 70.148438 Z M 76.289062 80.46875 " fill-opacity="1" fill-rule="evenodd"/><path fill="#2c9248" d="M 293.71875 109.636719 C 297.8125 123.703125 314.519531 132.273438 333.324219 127.558594 C 325.484375 120.128906 323.695312 127.140625 315.582031 119.644531 C 320.050781 119.953125 321.460938 121.125 325.933594 120.46875 C 323.390625 116.71875 322.566406 113.625 321.570312 107.78125 C 316.34375 107.644531 313.285156 109.398438 308.675781 109.949219 C 303.449219 110.5625 298.773438 109.398438 293.71875 109.636719 Z M 293.71875 109.636719 " fill-opacity="1" fill-rule="evenodd"/><path fill="#2c9248" d="M 111.699219 58.625 C 113.726562 61.238281 117.238281 62.890625 120.332031 64.710938 C 110.949219 64.261719 111.1875 59.34375 102.316406 58.449219 C 105.925781 67.597656 129 82.703125 142.09375 71.589844 C 132.742188 62.816406 133.910156 68.457031 123.734375 51.949219 Z M 111.699219 58.625 " fill-opacity="1" fill-rule="evenodd"/><path fill="#2c9248" d="M 234.34375 71.355469 C 234.996094 72.113281 234.445312 71.941406 236.335938 73.074219 C 248.542969 80.367188 265.972656 70.804688 273.847656 58.457031 C 264.804688 59.347656 266.25 63.679688 256.105469 64.785156 C 258.957031 62.617188 262.015625 61.175781 264.425781 58.632812 C 262.636719 57.464844 260.816406 57.015625 258.886719 55.917969 C 256.171875 54.332031 256.171875 53.441406 253.488281 52.027344 C 249.878906 54.710938 248.085938 59.011719 244.785156 62.65625 C 241.355469 66.503906 238.292969 67.808594 234.34375 71.355469 Z M 234.34375 71.355469 " fill-opacity="1" fill-rule="evenodd"/><path fill="#2c9248" d="M 302.796875 287.605469 C 308.332031 286.09375 311.734375 282.171875 315 279.113281 L 310.289062 280.144531 L 310.460938 276.289062 C 306.851562 281.929688 304.273438 283.753906 302.796875 287.605469 Z M 302.796875 287.605469 " fill-opacity="1" fill-rule="evenodd"/><g clip-path="url(#6cce1f2006)"><path fill="#f4c01e" d="M 89.757812 177.304688 L 96.007812 191.292969 C 96.25 191.828125 96.625 192.292969 97.105469 192.640625 C 97.582031 192.984375 98.144531 193.199219 98.730469 193.261719 L 114.027344 194.855469 L 102.59375 205.09375 C 102.15625 205.484375 101.828125 205.988281 101.644531 206.546875 C 101.460938 207.105469 101.429688 207.703125 101.554688 208.277344 L 104.757812 223.25 L 91.441406 215.589844 C 90.929688 215.296875 90.347656 215.140625 89.757812 215.140625 C 89.167969 215.140625 88.589844 215.296875 88.078125 215.589844 L 74.761719 223.25 L 77.964844 208.277344 C 78.085938 207.703125 78.054688 207.105469 77.871094 206.546875 C 77.691406 205.988281 77.363281 205.484375 76.925781 205.09375 L 65.492188 194.855469 L 80.785156 193.261719 C 81.375 193.199219 81.933594 192.984375 82.414062 192.640625 C 82.890625 192.292969 83.269531 191.828125 83.507812 191.292969 Z M 89.757812 177.304688 " fill-opacity="1" fill-rule="evenodd"/></g><g clip-path="url(#1f8e7aea64)"><path fill="#f4c01e" d="M 127.992188 214.601562 L 134.242188 228.589844 C 134.484375 229.125 134.859375 229.589844 135.339844 229.9375 C 135.816406 230.28125 136.378906 230.496094 136.964844 230.558594 L 152.261719 232.152344 L 140.828125 242.390625 C 140.390625 242.785156 140.0625 243.285156 139.878906 243.84375 C 139.695312 244.402344 139.664062 245 139.789062 245.574219 L 142.992188 260.546875 L 129.675781 252.886719 C 129.164062 252.59375 128.582031 252.441406 127.992188 252.441406 C 127.402344 252.441406 126.820312 252.59375 126.3125 252.886719 L 112.996094 260.546875 L 116.199219 245.574219 C 116.320312 245 116.289062 244.402344 116.105469 243.84375 C 115.925781 243.285156 115.597656 242.785156 115.160156 242.390625 L 103.726562 232.152344 L 119.019531 230.558594 C 119.609375 230.496094 120.167969 230.28125 120.648438 229.9375 C 121.125 229.589844 121.503906 229.125 121.742188 228.589844 Z M 127.992188 214.601562 " fill-opacity="1" fill-rule="evenodd"/></g><g clip-path="url(#c871363957)"><path fill="#f4c01e" d="M 189.519531 223.421875 L 195.769531 237.40625 C 196.011719 237.945312 196.390625 238.410156 196.867188 238.753906 C 197.34375 239.101562 197.90625 239.3125 198.492188 239.375 L 213.789062 240.96875 L 202.355469 251.207031 C 201.917969 251.601562 201.589844 252.101562 201.40625 252.664062 C 201.226562 253.222656 201.195312 253.820312 201.316406 254.394531 L 204.519531 269.367188 L 191.203125 261.707031 C 190.691406 261.414062 190.113281 261.257812 189.519531 261.257812 C 188.929688 261.257812 188.351562 261.414062 187.839844 261.707031 L 174.523438 269.367188 L 177.726562 254.394531 C 177.847656 253.820312 177.816406 253.222656 177.636719 252.664062 C 177.453125 252.101562 177.125 251.601562 176.6875 251.207031 L 165.253906 240.96875 L 180.550781 239.375 C 181.136719 239.3125 181.699219 239.101562 182.175781 238.753906 C 182.652344 238.410156 183.03125 237.945312 183.269531 237.40625 Z M 189.519531 223.421875 " fill-opacity="1" fill-rule="evenodd"/></g><g clip-path="url(#8ac9fcc641)"><path fill="#f4c01e" d="M 251.019531 214.601562 L 257.269531 228.589844 C 257.511719 229.125 257.886719 229.589844 258.367188 229.9375 C 258.84375 230.28125 259.40625 230.496094 259.992188 230.558594 L 275.289062 232.152344 L 263.855469 242.390625 C 263.414062 242.785156 263.089844 243.285156 262.90625 243.84375 C 262.722656 244.402344 262.691406 245 262.816406 245.574219 L 266.019531 260.546875 L 252.703125 252.886719 C 252.191406 252.59375 251.609375 252.441406 251.019531 252.441406 C 250.429688 252.441406 249.847656 252.59375 249.335938 252.886719 L 236.023438 260.546875 L 239.226562 245.574219 C 239.347656 245 239.316406 244.402344 239.132812 243.84375 C 238.953125 243.285156 238.625 242.785156 238.183594 242.390625 L 226.753906 232.152344 L 242.046875 230.558594 C 242.636719 230.496094 243.195312 230.28125 243.675781 229.9375 C 244.152344 229.589844 244.53125 229.125 244.769531 228.589844 Z M 251.019531 214.601562 " fill-opacity="1" fill-rule="evenodd"/></g><g clip-path="url(#010204100f)"><path fill="#f4c01e" d="M 284.8125 188.761719 L 287.253906 196.300781 L 288.046875 198.742188 L 290.617188 198.738281 L 298.578125 198.714844 L 292.132812 203.359375 L 290.046875 204.863281 L 290.847656 207.300781 L 293.324219 214.839844 L 286.890625 210.171875 L 284.8125 208.652344 L 282.734375 210.171875 L 276.304688 214.839844 L 278.78125 207.300781 L 279.585938 204.863281 L 277.492188 203.359375 L 271.050781 198.714844 L 279.011719 198.742188 L 281.585938 198.746094 L 282.378906 196.300781 L 284.8125 188.761719 M 284.8125 177.3125 L 279.007812 195.234375 L 260.109375 195.1875 L 275.425781 206.21875 L 269.546875 224.105469 L 284.8125 213.007812 L 300.078125 224.101562 L 294.203125 206.21875 L 309.519531 195.1875 L 290.617188 195.234375 Z M 284.8125 177.3125 " fill-opacity="1" fill-rule="nonzero"/></g><g clip-path="url(#c68da5a09a)"><path fill="#f4c01e" d="M 279.011719 195.226562 L 260.109375 195.1875 L 275.425781 206.21875 L 269.546875 224.101562 L 284.8125 213.007812 L 284.8125 177.3125 Z M 279.011719 195.226562 " fill-opacity="1" fill-rule="nonzero"/></g><g fill="#f2efeb" fill-opacity="1"><g transform="translate(123.693731, 202.795928)"><g><path d="M 30.265625 3.125 C 28.390625 2.425781 27.347656 1.242188 27.140625 -0.421875 L 27.140625 -14.046875 L 4.890625 -14.046875 C 4.335938 -14.046875 3.78125 -14.113281 3.21875 -14.25 C 2.664062 -14.382812 2.144531 -14.609375 1.65625 -14.921875 C 1.175781 -15.234375 0.726562 -15.597656 0.3125 -16.015625 C 0.101562 -16.359375 -0.0820312 -16.6875 -0.25 -17 C -0.425781 -17.3125 -0.566406 -17.65625 -0.671875 -18.03125 C -0.773438 -18.414062 -0.863281 -18.800781 -0.9375 -19.1875 C -1.007812 -19.570312 -1.046875 -19.9375 -1.046875 -20.28125 C -1.046875 -21.800781 -0.628906 -23.082031 0.203125 -24.125 L 0.421875 -24.34375 L 29.640625 -56.265625 C 30.890625 -57.515625 32.585938 -58.140625 34.734375 -58.140625 C 36.472656 -58.140625 37.929688 -57.65625 39.109375 -56.6875 C 39.867188 -56.125 40.421875 -55.441406 40.765625 -54.640625 C 41.109375 -53.847656 41.316406 -52.96875 41.390625 -52 L 41.390625 -24.34375 L 45.03125 -24.34375 C 45.3125 -24.34375 45.535156 -24.34375 45.703125 -24.34375 C 45.878906 -24.34375 46.101562 -24.320312 46.375 -24.28125 C 46.65625 -24.25 46.898438 -24.210938 47.109375 -24.171875 C 47.316406 -24.140625 47.523438 -24.070312 47.734375 -23.96875 C 47.941406 -23.863281 48.1875 -23.742188 48.46875 -23.609375 C 49.644531 -22.910156 50.300781 -21.488281 50.4375 -19.34375 L 50.4375 -19.234375 C 50.4375 -18.609375 50.367188 -18.019531 50.234375 -17.46875 C 50.097656 -16.914062 49.890625 -16.394531 49.609375 -15.90625 C 49.191406 -15.28125 48.632812 -14.8125 47.9375 -14.5 C 47.25 -14.195312 46.554688 -14.046875 45.859375 -14.046875 L 41.390625 -14.046875 L 41.390625 -0.734375 C 41.390625 1.066406 40.382812 2.351562 38.375 3.125 C 37.75 3.394531 37.109375 3.582031 36.453125 3.6875 C 35.796875 3.789062 35.082031 3.84375 34.3125 3.84375 C 32.789062 3.84375 31.441406 3.601562 30.265625 3.125 Z M 13.421875 -24.34375 L 27.140625 -24.34375 L 27.140625 -39.625 Z M 13.421875 -24.34375 "/></g></g></g><g fill="#f2efeb" fill-opacity="1"><g transform="translate(175.273817, 202.795928)"><g><path d="M 4.984375 1.25 C 3.179688 -0.414062 2.28125 -2.597656 2.28125 -5.296875 C 2.28125 -7.796875 3.164062 -9.929688 4.9375 -11.703125 C 6.707031 -13.472656 8.910156 -14.359375 11.546875 -14.359375 C 14.109375 -14.359375 16.289062 -13.488281 18.09375 -11.75 C 19.894531 -10.019531 20.796875 -7.867188 20.796875 -5.296875 C 20.796875 -4.679688 20.742188 -4.0625 20.640625 -3.4375 C 20.535156 -2.8125 20.363281 -2.21875 20.125 -1.65625 C 19.882812 -1.101562 19.585938 -0.566406 19.234375 -0.046875 C 18.890625 0.472656 18.507812 0.941406 18.09375 1.359375 C 17.195312 2.179688 16.175781 2.800781 15.03125 3.21875 C 13.882812 3.632812 12.6875 3.84375 11.4375 3.84375 C 10.1875 3.84375 9.003906 3.632812 7.890625 3.21875 C 6.785156 2.800781 5.816406 2.144531 4.984375 1.25 Z M 4.984375 1.25 "/></g></g></g><g fill="#f2efeb" fill-opacity="1"><g transform="translate(198.360062, 202.795928)"><g><path d="M 9.46875 -2.28125 C 5.09375 -6.863281 2.90625 -13.035156 2.90625 -20.796875 C 2.90625 -23.847656 3.269531 -26.773438 4 -29.578125 C 4.726562 -32.390625 5.820312 -35.113281 7.28125 -37.75 C 10.125 -42.945312 14.144531 -47.316406 19.34375 -50.859375 C 24.476562 -54.390625 30.335938 -56.742188 36.921875 -57.921875 C 37.203125 -57.921875 37.515625 -57.9375 37.859375 -57.96875 C 38.203125 -58.007812 38.582031 -58.03125 39 -58.03125 C 40.25 -58.03125 41.34375 -57.613281 42.28125 -56.78125 C 43.21875 -55.945312 43.6875 -54.875 43.6875 -53.5625 C 43.6875 -53.007812 43.582031 -52.472656 43.375 -51.953125 C 43.164062 -51.429688 42.882812 -50.960938 42.53125 -50.546875 C 42.1875 -50.128906 41.785156 -49.78125 41.328125 -49.5 C 40.878906 -49.226562 40.414062 -49.019531 39.9375 -48.875 C 30.851562 -46.03125 24.644531 -41.523438 21.3125 -35.359375 C 21.59375 -35.492188 21.816406 -35.578125 21.984375 -35.609375 C 22.160156 -35.648438 22.390625 -35.707031 22.671875 -35.78125 C 25.171875 -36.46875 27.738281 -36.8125 30.375 -36.8125 C 32.238281 -36.8125 34.035156 -36.601562 35.765625 -36.1875 C 37.503906 -35.769531 39.171875 -35.128906 40.765625 -34.265625 C 42.359375 -33.398438 43.78125 -32.378906 45.03125 -31.203125 C 46.28125 -30.023438 47.351562 -28.707031 48.25 -27.25 C 50.125 -24.195312 51.0625 -20.765625 51.0625 -16.953125 C 51.0625 -12.648438 49.882812 -8.835938 47.53125 -5.515625 C 45.3125 -2.253906 42.363281 0.238281 38.6875 1.96875 C 36.882812 2.875 35.007812 3.550781 33.0625 4 C 31.125 4.457031 29.148438 4.6875 27.140625 4.6875 C 19.796875 4.6875 13.90625 2.363281 9.46875 -2.28125 Z M 33.171875 -6.96875 C 34.972656 -9.257812 35.875 -12.273438 35.875 -16.015625 C 35.875 -16.921875 35.820312 -17.769531 35.71875 -18.5625 C 35.613281 -19.363281 35.441406 -20.09375 35.203125 -20.75 C 34.960938 -21.40625 34.6875 -22.007812 34.375 -22.5625 C 34.0625 -23.125 33.695312 -23.644531 33.28125 -24.125 C 32.445312 -25.09375 31.507812 -25.800781 30.46875 -26.25 C 29.425781 -26.707031 28.210938 -26.9375 26.828125 -26.9375 C 26.140625 -26.9375 25.445312 -26.847656 24.75 -26.671875 C 24.0625 -26.503906 23.332031 -26.242188 22.5625 -25.890625 C 21.800781 -25.546875 21.09375 -25.164062 20.4375 -24.75 C 19.78125 -24.332031 19.101562 -23.847656 18.40625 -23.296875 C 18.269531 -22.671875 18.179688 -22.164062 18.140625 -21.78125 C 18.109375 -21.40625 18.09375 -21.046875 18.09375 -20.703125 C 18.09375 -18.128906 18.441406 -15.457031 19.140625 -12.6875 C 19.765625 -10.125 20.835938 -7.941406 22.359375 -6.140625 C 23.609375 -4.609375 25.203125 -3.84375 27.140625 -3.84375 C 29.566406 -3.84375 31.578125 -4.882812 33.171875 -6.96875 Z M 33.171875 -6.96875 "/></g></g></g></svg>